<?xml version="1.0" standalone="no"?><!DOCTYPE svg PUBLIC "-//W3C//DTD SVG 1.1//EN" "http://www.w3.org/Graphics/SVG/1.1/DTD/svg11.dtd"><svg t="1605137069602" class="icon" viewBox="0 0 1024 1024" version="1.1" xmlns="http://www.w3.org/2000/svg" p-id="1284" xmlns:xlink="http://www.w3.org/1999/xlink" width="200" height="200"><defs><style type="text/css"></style></defs><path d="M511.21 66.57c-245.74 0-445.65 199.91-445.65 445.65s199.91 445.65 445.65 445.65 445.65-199.91 445.65-445.65S756.95 66.57 511.21 66.57z m0 819.04c-205.89 0-373.39-167.5-373.39-373.39s167.5-373.39 373.39-373.39S884.6 306.33 884.6 512.22 717.1 885.61 511.21 885.61z" p-id="1285" fill="#707070"></path><path d="M318.49 512.22m-48.18 0a48.18 48.18 0 1 0 96.36 0 48.18 48.18 0 1 0-96.36 0Z" p-id="1286" fill="#707070"></path><path d="M511.21 512.22m-48.18 0a48.18 48.18 0 1 0 96.36 0 48.18 48.18 0 1 0-96.36 0Z" p-id="1287" fill="#707070"></path><path d="M703.92 512.22m-48.18 0a48.18 48.18 0 1 0 96.36 0 48.18 48.18 0 1 0-96.36 0Z" p-id="1288" fill="#707070"></path></svg>