<?xml version="1.0" standalone="no"?><!DOCTYPE svg PUBLIC "-//W3C//DTD SVG 1.1//EN" "http://www.w3.org/Graphics/SVG/1.1/DTD/svg11.dtd"><svg t="1605223901498" class="icon" viewBox="0 0 1024 1024" version="1.1" xmlns="http://www.w3.org/2000/svg" p-id="2994" xmlns:xlink="http://www.w3.org/1999/xlink" width="48" height="48"><defs><style type="text/css"></style></defs><path d="M415.5392 673.0752c141.4144 0 256-114.5856 256-256s-114.5856-256-256-256-256 114.5856-256 256 114.5856 256 256 256zM657.408 615.6288l255.6928 255.6928c11.0592 11.0592 11.0592 29.0816 0 40.2432-11.0592 11.0592-29.0816 11.0592-40.2432 0L617.472 656.0768c-54.4768 46.08-124.928 73.8304-201.9328 73.8304-172.8512 0-312.9344-140.0832-312.9344-312.832S242.688 104.1408 415.5392 104.1408s312.9344 140.0832 312.9344 312.9344c-0.1024 75.3664-26.7264 144.4864-71.0656 198.5536z" fill="#424242" p-id="2995"></path></svg>